<?xml version="1.0" encoding="UTF-8" standalone="no"?>
<!DOCTYPE svg PUBLIC "-//W3C//DTD SVG 1.1//EN"
 "http://www.w3.org/Graphics/SVG/1.1/DTD/svg11.dtd">
<!-- Generated by graphviz version 15.1.1 (20260805.0921)
 -->
<!-- Title: numgrad Pages: 1 -->
<svg width="602pt" height="114pt"
 viewBox="0.00 0.00 602.00 114.00" xmlns="http://www.w3.org/2000/svg" xmlns:xlink="http://www.w3.org/1999/xlink">
<g id="graph0" class="graph" transform="scale(1 1) rotate(0) translate(4 110)">
<title>numgrad</title>
<!-- 0 -->
<g id="node1" class="node">
<title>0</title>
<path fill="#eef3fa" stroke="#5b7fae" d="M42,-44C42,-44 12,-44 12,-44 6,-44 0,-38 0,-32 0,-32 0,-12 0,-12 0,-6 6,0 12,0 12,0 42,0 42,0 48,0 54,-6 54,-12 54,-12 54,-32 54,-32 54,-38 48,-44 42,-44"/>
<text xml:space="preserve" text-anchor="start" x="8" y="-29.55" font-family="Helvetica,sans-Serif" font-size="11.00">x</text>
<text xml:space="preserve" text-anchor="start" x="8" y="-17.55" font-family="Helvetica,sans-Serif" font-size="11.00">data 2</text>
<text xml:space="preserve" text-anchor="start" x="8" y="-5.55" font-family="Helvetica,sans-Serif" font-size="11.00">grad 4</text>
</g>
<!-- 2_mul -->
<g id="node4" class="node">
<title>2_mul</title>
<ellipse fill="#f6e6cc" stroke="#b98b3d" cx="117" cy="-68" rx="27" ry="18"/>
<text xml:space="preserve" text-anchor="middle" x="117" y="-63.55" font-family="Helvetica,sans-Serif" font-size="11.00">mul</text>
</g>
<!-- 0&#45;&gt;2_mul -->
<g id="edge2" class="edge">
<title>0&#45;&gt;2_mul</title>
<path fill="none" stroke="#555555" d="M54.4,-35.8C64.83,-41.25 76.84,-47.53 87.47,-53.09"/>
<polygon fill="#555555" stroke="#555555" points="86.24,-55.21 93.58,-56.28 88.51,-50.87 86.24,-55.21"/>
</g>
<!-- 3_add -->
<g id="node6" class="node">
<title>3_add</title>
<ellipse fill="#f6e6cc" stroke="#b98b3d" cx="297" cy="-45" rx="27" ry="18"/>
<text xml:space="preserve" text-anchor="middle" x="297" y="-40.55" font-family="Helvetica,sans-Serif" font-size="11.00">add</text>
</g>
<!-- 0&#45;&gt;3_add -->
<g id="edge5" class="edge">
<title>0&#45;&gt;3_add</title>
<path fill="none" stroke="#555555" d="M54.18,-24.25C102.82,-28.42 207.07,-37.37 261.43,-42.03"/>
<polygon fill="#555555" stroke="#555555" points="261.02,-44.46 268.2,-42.61 261.44,-39.57 261.02,-44.46"/>
</g>
<!-- 1 -->
<g id="node2" class="node">
<title>1</title>
<path fill="#eef3fa" stroke="#5b7fae" d="M42,-106C42,-106 12,-106 12,-106 6,-106 0,-100 0,-94 0,-94 0,-74 0,-74 0,-68 6,-62 12,-62 12,-62 42,-62 42,-62 48,-62 54,-68 54,-74 54,-74 54,-94 54,-94 54,-100 48,-106 42,-106"/>
<text xml:space="preserve" text-anchor="start" x="8" y="-91.55" font-family="Helvetica,sans-Serif" font-size="11.00">y</text>
<text xml:space="preserve" text-anchor="start" x="8" y="-79.55" font-family="Helvetica,sans-Serif" font-size="11.00">data 3</text>
<text xml:space="preserve" text-anchor="start" x="8" y="-67.55" font-family="Helvetica,sans-Serif" font-size="11.00">grad 2</text>
</g>
<!-- 1&#45;&gt;2_mul -->
<g id="edge3" class="edge">
<title>1&#45;&gt;2_mul</title>
<path fill="none" stroke="#555555" d="M54.4,-79.2C63.16,-77.61 73.04,-75.81 82.27,-74.13"/>
<polygon fill="#555555" stroke="#555555" points="82.58,-76.57 89.03,-72.9 81.71,-71.74 82.58,-76.57"/>
</g>
<!-- 2 -->
<g id="node3" class="node">
<title>2</title>
<path fill="#eef3fa" stroke="#5b7fae" d="M222,-86C222,-86 192,-86 192,-86 186,-86 180,-80 180,-74 180,-74 180,-62 180,-62 180,-56 186,-50 192,-50 192,-50 222,-50 222,-50 228,-50 234,-56 234,-62 234,-62 234,-74 234,-74 234,-80 228,-86 222,-86"/>
<text xml:space="preserve" text-anchor="start" x="188" y="-69.55" font-family="Helvetica,sans-Serif" font-size="11.00">data 6</text>
<text xml:space="preserve" text-anchor="start" x="188" y="-57.55" font-family="Helvetica,sans-Serif" font-size="11.00">grad 1</text>
</g>
<!-- 2&#45;&gt;3_add -->
<g id="edge6" class="edge">
<title>2&#45;&gt;3_add</title>
<path fill="none" stroke="#555555" d="M234.4,-61.1C243.49,-58.72 253.77,-56.04 263.29,-53.55"/>
<polygon fill="#555555" stroke="#555555" points="263.8,-55.95 269.96,-51.81 262.56,-51.21 263.8,-55.95"/>
</g>
<!-- 2_mul&#45;&gt;2 -->
<g id="edge1" class="edge">
<title>2_mul&#45;&gt;2</title>
<path fill="none" stroke="#555555" d="M144.4,-68C152.84,-68 162.32,-68 171.26,-68"/>
<polygon fill="#555555" stroke="#555555" points="171.1,-70.45 178.1,-68 171.1,-65.55 171.1,-70.45"/>
</g>
<!-- 3 -->
<g id="node5" class="node">
<title>3</title>
<path fill="#eef3fa" stroke="#5b7fae" d="M402,-63C402,-63 372,-63 372,-63 366,-63 360,-57 360,-51 360,-51 360,-39 360,-39 360,-33 366,-27 372,-27 372,-27 402,-27 402,-27 408,-27 414,-33 414,-39 414,-39 414,-51 414,-51 414,-57 408,-63 402,-63"/>
<text xml:space="preserve" text-anchor="start" x="368" y="-46.55" font-family="Helvetica,sans-Serif" font-size="11.00">data 8</text>
<text xml:space="preserve" text-anchor="start" x="368" y="-34.55" font-family="Helvetica,sans-Serif" font-size="11.00">grad 1</text>
</g>
<!-- 4_relu -->
<g id="node8" class="node">
<title>4_relu</title>
<ellipse fill="#f6e6cc" stroke="#b98b3d" cx="477" cy="-45" rx="27" ry="18"/>
<text xml:space="preserve" text-anchor="middle" x="477" y="-40.55" font-family="Helvetica,sans-Serif" font-size="11.00">relu</text>
</g>
<!-- 3&#45;&gt;4_relu -->
<g id="edge8" class="edge">
<title>3&#45;&gt;4_relu</title>
<path fill="none" stroke="#555555" d="M414.4,-45C422.84,-45 432.32,-45 441.26,-45"/>
<polygon fill="#555555" stroke="#555555" points="441.1,-47.45 448.1,-45 441.1,-42.55 441.1,-47.45"/>
</g>
<!-- 3_add&#45;&gt;3 -->
<g id="edge4" class="edge">
<title>3_add&#45;&gt;3</title>
<path fill="none" stroke="#555555" d="M324.4,-45C332.84,-45 342.32,-45 351.26,-45"/>
<polygon fill="#555555" stroke="#555555" points="351.1,-47.45 358.1,-45 351.1,-42.55 351.1,-47.45"/>
</g>
<!-- 4 -->
<g id="node7" class="node">
<title>4</title>
<path fill="#eef3fa" stroke="#5b7fae" d="M582,-63C582,-63 552,-63 552,-63 546,-63 540,-57 540,-51 540,-51 540,-39 540,-39 540,-33 546,-27 552,-27 552,-27 582,-27 582,-27 588,-27 594,-33 594,-39 594,-39 594,-51 594,-51 594,-57 588,-63 582,-63"/>
<text xml:space="preserve" text-anchor="start" x="548" y="-46.55" font-family="Helvetica,sans-Serif" font-size="11.00">data 8</text>
<text xml:space="preserve" text-anchor="start" x="548" y="-34.55" font-family="Helvetica,sans-Serif" font-size="11.00">grad 1</text>
</g>
<!-- 4_relu&#45;&gt;4 -->
<g id="edge7" class="edge">
<title>4_relu&#45;&gt;4</title>
<path fill="none" stroke="#555555" d="M504.4,-45C512.84,-45 522.32,-45 531.26,-45"/>
<polygon fill="#555555" stroke="#555555" points="531.1,-47.45 538.1,-45 531.1,-42.55 531.1,-47.45"/>
</g>
</g>
</svg>
